<?xml version="1.0" encoding="UTF-8"?>
<svg version="1.1" xmlns="http://www.w3.org/2000/svg" width="490" height="489">
<path d="M0 0 C0.94278809 0.16097168 1.88557617 0.32194336 2.85693359 0.48779297 C42.76281986 7.62437218 79.30236749 24.99846097 111 50 C111.55220215 50.4336084 112.1044043 50.8672168 112.67333984 51.31396484 C126.78960933 62.51411595 140.21159803 75.55124736 151 90 C151.70769531 90.92570801 151.70769531 90.92570801 152.4296875 91.87011719 C161.40633919 103.64359879 169.04972553 115.93368502 176 129 C176.40702148 129.75796875 176.81404297 130.5159375 177.23339844 131.296875 C190.89723212 157.13560827 199.10924721 186.99163185 202 216 C202.11085938 217.06089844 202.22171875 218.12179688 202.3359375 219.21484375 C207.19425864 274.42900693 193.6064141 332.19517957 162 378 C161.61376465 378.56879883 161.2275293 379.13759766 160.82958984 379.72363281 C154.49581907 389.03113878 147.48566159 397.59961343 140 406 C139.51321777 406.54994629 139.02643555 407.09989258 138.52490234 407.66650391 C133.01704447 413.87141818 127.39117188 419.69111213 121 425 C120.08089844 425.80695313 119.16179687 426.61390625 118.21484375 427.4453125 C78.04145023 462.59224777 23.42913563 485.90504543 -30.35546875 486.203125 C-31.21143646 486.21018463 -32.06740417 486.21724426 -32.9493103 486.22451782 C-69.14569495 486.45524032 -69.14569495 486.45524032 -86 483 C-87.49490967 482.69400879 -87.49490967 482.69400879 -89.02001953 482.38183594 C-135.74685106 472.49689883 -180.88309425 451.1262461 -214 416 C-214.825 415.175 -215.65 414.35 -216.5 413.5 C-217.325 412.675 -218.15 411.85 -219 411 C-219.6084375 410.43796875 -220.216875 409.8759375 -220.84375 409.296875 C-228.55392477 401.97779605 -234.77608974 393.57875287 -241 385 C-241.75651855 383.96190186 -241.75651855 383.96190186 -242.52832031 382.90283203 C-279.95057803 330.91924037 -294.06920737 264.65998532 -284.03515625 201.6796875 C-276.7953583 159.67552877 -259.67105371 121.16916702 -233 88 C-232.18273437 86.97648437 -231.36546875 85.95296875 -230.5234375 84.8984375 C-219.77663392 71.69786614 -207.59891658 59.26152379 -194 49 C-193.47325684 48.59152832 -192.94651367 48.18305664 -192.40380859 47.76220703 C-160.75480939 23.23899224 -123.46872391 6.73889167 -84 0 C-83.0507666 -0.16226074 -82.1015332 -0.32452148 -81.12353516 -0.49169922 C-54.48171931 -4.81380194 -26.58555566 -4.54450086 0 0 Z " fill="#EE6D26" transform="translate(287,3)"/>
<path d="M0 0 C2.42806674 0.01078596 4.85540164 -0.00001495 7.28344727 -0.01269531 C21.35414287 -0.02666599 34.80726762 1.7801967 48.60571289 4.57324219 C50.2118042 4.89808594 50.2118042 4.89808594 51.8503418 5.22949219 C63.74437873 7.6985708 75.39160367 10.55605334 86.36743164 15.88574219 C89.22492173 17.25796117 92.113628 18.50861303 95.02978516 19.74902344 C128.6673757 34.11709692 158.28498835 56.86621144 181.04321289 85.44824219 C181.49970215 86.01849121 181.95619141 86.58874023 182.42651367 87.17626953 C185.43984369 91.02323936 187.89146488 94.96939445 190.23071289 99.26074219 C180.74952209 104.21222122 171.04398118 108.42283239 161.16821289 112.51074219 C159.99591125 112.99830994 159.99591125 112.99830994 158.79992676 113.49572754 C145.26263242 119.12024699 131.62124561 124.36439421 117.82543945 129.32397461 C113.47484223 130.89465974 109.13927223 132.50293186 104.84008789 134.20996094 C101.3719243 135.58702589 99.00911765 136.26074219 95.23071289 136.26074219 C95.26213379 135.16741577 95.26213379 135.16741577 95.29418945 134.05200195 C95.62534906 120.74588331 95.85712395 108.17734186 92.10571289 95.32324219 C91.23071289 92.26074219 91.23071289 92.26074219 91.23071289 89.26074219 C83.81209224 90.89781172 76.39579035 92.54520073 68.98071289 94.19824219 C67.87691284 94.44418121 66.77311279 94.69012024 65.63586426 94.94351196 C49.3517154 98.57961879 33.13365309 102.40985431 16.98754883 106.61791992 C16.28883667 106.79788513 15.59012451 106.97785034 14.87023926 107.16326904 C13.02067105 107.6402035 11.17296713 108.12435201 9.32543945 108.60913086 C6.43772261 109.21715518 4.15546532 109.62939285 1.23071289 109.26074219 C-1.59939883 107.30289708 -3.77206178 104.67620218 -6.08178711 102.13574219 C-6.72696289 101.47058594 -7.37213867 100.80542969 -8.03686523 100.12011719 C-12.73514405 95.0489591 -12.73514405 95.0489591 -12.90600586 91.10449219 C-12.86088867 90.16605469 -12.81577148 89.22761719 -12.76928711 88.26074219 C-14.69291476 85.40027814 -14.69291476 85.40027814 -17.26928711 82.88574219 C-18.10459961 82.01175781 -18.93991211 81.13777344 -19.80053711 80.23730469 C-20.45022461 79.58503906 -21.09991211 78.93277344 -21.76928711 78.26074219 C-18.76780829 75.25926337 -14.96055067 74.79195524 -10.95288086 73.75683594 C-10.04484711 73.51737747 -9.13681335 73.27791901 -8.20126343 73.03120422 C-5.20525312 72.24503924 -2.2063348 71.47079324 0.79321289 70.69824219 C1.81226715 70.43362183 2.83132141 70.16900146 3.8812561 69.8963623 C18.99701476 65.97729206 34.16272818 62.34404306 49.41821289 59.01074219 C50.74793625 58.71947952 50.74793625 58.71947952 52.10452271 58.42233276 C54.59732103 57.87887428 57.09129992 57.34142205 59.58618164 56.80761719 C60.32156158 56.64884598 61.05694153 56.49007477 61.81460571 56.32649231 C64.68354064 55.72229951 67.28915271 55.26074219 70.23071289 55.26074219 C57.04898652 38.05126609 34.53357048 27.3923361 13.44555664 23.74121094 C-12.9881239 20.37365882 -38.96987111 26.46999045 -60.47631836 42.42871094 C-79.76801826 57.84235191 -91.95797039 77.25953168 -97.76928711 101.26074219 C-96.70709961 100.85082031 -95.64491211 100.44089844 -94.55053711 100.01855469 C-93.12354506 99.47404456 -91.69645652 98.92978727 -90.26928711 98.38574219 C-89.57319336 98.11632812 -88.87709961 97.84691406 -88.15991211 97.56933594 C-83.41603187 95.76841844 -78.7130261 94.40760056 -73.76928711 93.26074219 C-73.60686523 91.94783203 -73.60686523 91.94783203 -73.44116211 90.60839844 C-71.63341112 81.60117403 -65.57245852 74.61182927 -59.26928711 68.26074219 C-58.7359375 67.72118896 -58.20258789 67.18163574 -57.65307617 66.62573242 C-53.25600415 62.36598517 -48.68814994 58.64625237 -42.45678711 57.82324219 C-41.56991211 57.96761719 -40.68303711 58.11199219 -39.76928711 58.26074219 C-39.10928711 59.25074219 -38.44928711 60.24074219 -37.76928711 61.26074219 C-40.28206808 73.24477449 -49.45766883 84.59422971 -58.76928711 92.26074219 C-61.67734384 94.15393718 -64.635164 95.7765063 -67.76928711 97.26074219 C-68.75928711 97.75574219 -68.75928711 97.75574219 -69.76928711 98.26074219 C-69.03778442 98.78861328 -69.03778442 98.78861328 -68.29150391 99.32714844 C-66.8363432 100.37734568 -65.38145126 101.42791538 -63.92675781 102.47875977 C-62.27447267 103.67081564 -60.62065103 104.86074459 -58.96533203 106.04858398 C-55.39219274 108.61707403 -51.82833734 111.1822613 -48.37084961 113.90527344 C-43.06892528 118.28810524 -43.06892528 118.28810524 -36.58178711 119.76074219 C-35.65366211 119.59574219 -34.72553711 119.43074219 -33.76928711 119.26074219 C-36.1214447 121.61289978 -37.6012243 121.95557479 -40.78100586 122.85449219 C-42.36171875 123.30985352 -42.36171875 123.30985352 -43.97436523 123.77441406 C-45.12356445 124.09990234 -46.27276367 124.42539063 -47.45678711 124.76074219 C-59.67695095 128.28745614 -71.77529558 132.11641089 -83.85009766 136.11035156 C-85.10218018 136.52091797 -86.3542627 136.93148437 -87.64428711 137.35449219 C-88.75545898 137.72251953 -89.86663086 138.09054688 -91.01147461 138.46972656 C-93.76928711 139.26074219 -93.76928711 139.26074219 -96.76928711 139.26074219 C-93.24251008 158.87634012 -84.48565337 175.34992605 -69.9855957 189.07397461 C-68.54896852 190.43743434 -67.15494443 191.84551291 -65.76928711 193.26074219 C-65.76928711 193.92074219 -65.76928711 194.58074219 -65.76928711 195.26074219 C-65.24463867 195.50179687 -64.71999023 195.74285156 -64.17944336 195.99121094 C-61.67714199 197.30927892 -59.35052911 198.8181232 -56.99731445 200.38378906 C-49.40458523 205.42766372 -41.72219566 210.11260943 -32.76928711 212.26074219 C-32.59768066 211.72489502 -32.42607422 211.18904785 -32.24926758 210.63696289 C-30.34982587 204.81104457 -28.19472113 199.12642423 -25.89428711 193.44824219 C-25.54132568 192.57167969 -25.18836426 191.69511719 -24.82470703 190.79199219 C-21.75140344 183.17588042 -18.66212191 175.5640655 -15.35522461 168.04589844 C-14.89374023 166.98242188 -14.43225586 165.91894531 -13.95678711 164.82324219 C-13.5378418 163.87578125 -13.11889648 162.92832031 -12.68725586 161.95214844 C-11.74559534 159.19127995 -11.70459472 157.14701788 -11.76928711 154.26074219 C-10.39428711 152.44824219 -10.39428711 152.44824219 -8.76928711 151.26074219 C-8.10928711 151.26074219 -7.44928711 151.26074219 -6.76928711 151.26074219 C-6.84147461 150.36871094 -6.91366211 149.47667969 -6.98803711 148.55761719 C-7.08084961 147.38714844 -7.17366211 146.21667969 -7.26928711 145.01074219 C-7.36209961 143.85058594 -7.45491211 142.69042969 -7.55053711 141.49511719 C-7.93521893 135.80732174 -7.878444 134.44267034 -4.76928711 129.26074219 C0.67571289 132.72574219 0.67571289 132.72574219 6.23071289 136.26074219 C5.90071289 138.24074219 5.57071289 140.22074219 5.23071289 142.26074219 C4.24071289 142.92074219 3.25071289 143.58074219 2.23071289 144.26074219 C1.4946479 147.82843771 1.4946479 147.82843771 1.23071289 151.26074219 C2.55071289 151.59074219 3.87071289 151.92074219 5.23071289 152.26074219 C5.59229492 154.17113281 5.59229492 154.17113281 5.96118164 156.12011719 C7.17298781 161.5631377 9.26646624 166.43870327 11.54321289 171.51074219 C12.3614821 173.37320606 13.17789701 175.23648575 13.99243164 177.10058594 C14.38221191 177.99116699 14.77199219 178.88174805 15.17358398 179.79931641 C16.48792707 182.85964134 17.68847264 185.95409516 18.85571289 189.07324219 C21.67817638 196.5998115 24.96103509 203.92045688 28.23071289 211.26074219 C42.47517211 211.26074219 57.90755307 198.25380888 67.74633789 188.86621094 C75.70390006 180.52078017 81.16654426 171.2348828 86.38305664 161.04589844 C86.71901855 160.39049072 87.05498047 159.73508301 87.40112305 159.05981445 C88.34964183 157.14641975 88.34964183 157.14641975 88.93774414 154.47949219 C91.13543349 150.7082307 94.9897484 150.04642117 98.98071289 148.69824219 C100.91660124 148.00046886 102.85144041 147.29978004 104.78540039 146.59667969 C105.83050781 146.22124023 106.87561523 145.84580078 107.95239258 145.45898438 C113.71230204 143.35370916 119.4100578 141.09571255 125.10571289 138.82324219 C125.71805786 138.57900513 126.33040283 138.33476807 126.96130371 138.08312988 C138.6400154 133.41179626 150.19634048 128.46393201 161.73071289 123.44824219 C162.55247009 123.09206818 163.37422729 122.73589417 164.22088623 122.368927 C173.47665228 118.35071772 182.58808107 114.1926924 191.52563477 109.50415039 C194.23071289 108.26074219 194.23071289 108.26074219 197.23071289 108.26074219 C207.43446038 126.2476588 216.42512317 144.3503294 222.23071289 164.26074219 C222.54951416 165.35128906 222.54951416 165.35128906 222.87475586 166.46386719 C228.85244746 187.40555238 230.50022957 208.00567821 230.54321289 229.69824219 C230.54688873 230.58948792 230.55056458 231.48073364 230.55435181 232.39898682 C230.58698627 247.56057569 229.65368664 262.43999415 226.23071289 277.26074219 C218.70523433 276.19701421 211.37317819 274.6250688 203.98071289 272.88574219 C192.1416934 270.1363342 180.24607339 268.07246723 168.23071289 266.26074219 C167.1130957 266.091875 165.99547852 265.92300781 164.84399414 265.74902344 C133.17028926 261.03166314 101.59378495 258.76211134 69.63232422 257.26245117 C68.38418945 257.20279678 67.13605469 257.1431424 65.85009766 257.0816803 C63.4786082 256.9690194 61.10694594 256.85992363 58.73510742 256.75486755 C57.67316162 256.70443802 56.61121582 256.65400848 55.51708984 256.60205078 C54.58911087 256.56002533 53.6611319 256.51799988 52.70503235 256.47470093 C50.4387333 256.27873008 48.41285653 255.88635425 46.23071289 255.26074219 C46.59165039 256.06898438 46.95258789 256.87722656 47.32446289 257.70996094 C47.78852539 258.77859375 48.25258789 259.84722656 48.73071289 260.94824219 C49.42680664 262.53185547 49.42680664 262.53185547 50.13696289 264.14746094 C51.1802209 267.11702035 51.46136591 269.15269282 51.23071289 272.26074219 C49.91071289 272.26074219 48.59071289 272.26074219 47.23071289 272.26074219 C46.43759922 270.53223874 45.64628699 268.80290865 44.85571289 267.07324219 C44.41485352 266.1103125 43.97399414 265.14738281 43.51977539 264.15527344 C42.36001544 261.5510852 41.28945903 258.90760753 40.23071289 256.26074219 C27.03071289 255.93074219 13.83071289 255.60074219 0.23071289 255.26074219 C0.23071289 261.20074219 0.23071289 267.14074219 0.23071289 273.26074219 C-1.41928711 273.59074219 -3.06928711 273.92074219 -4.76928711 274.26074219 C-4.76928711 267.99074219 -4.76928711 261.72074219 -4.76928711 255.26074219 C-18.29928711 255.26074219 -31.82928711 255.26074219 -45.76928711 255.26074219 C-47.25428711 259.71574219 -47.25428711 259.71574219 -48.76928711 264.26074219 C-49.73717128 266.94134319 -50.75260195 269.59799533 -51.76928711 272.26074219 C-53.41928711 272.26074219 -55.06928711 272.26074219 -56.76928711 272.26074219 C-56.3424928 268.2061962 -55.25546037 264.78094964 -53.72241211 261.03417969 C-53.17568848 259.69105713 -53.17568848 259.69105713 -52.61791992 258.32080078 C-52.33787109 257.64098145 -52.05782227 256.96116211 -51.76928711 256.26074219 C-88.29603263 258.74154024 -88.29603263 258.74154024 -124.76928711 261.88574219 C-125.90696533 261.99635986 -127.04464355 262.10697754 -128.21679688 262.22094727 C-140.314991 263.44890804 -152.29547609 265.07947205 -164.23022461 267.42089844 C-167.58061885 268.05953443 -170.93759693 268.61144509 -174.30834961 269.13183594 C-186.770489 271.06884471 -198.8369073 273.63494453 -210.99584961 276.99121094 C-214.5682069 277.97225339 -218.09332049 278.75392287 -221.76928711 279.26074219 C-224.28648904 266.61000951 -226.53924338 254.1911168 -226.76928711 241.26074219 C-226.79506836 240.12314453 -226.82084961 238.98554688 -226.84741211 237.81347656 C-228.0574645 177.70412392 -209.42463788 123.01103111 -169.76928711 77.26074219 C-169.29394531 76.71095703 -168.81860352 76.16117187 -168.32885742 75.59472656 C-126.51569294 27.66613075 -63.40368405 -0.33373738 0 0 Z " fill="#0E0F1C" transform="translate(242.769287109375,15.7392578125)"/>
<path d="M0 0 C2.42806674 0.01078596 4.85540164 -0.00001495 7.28344727 -0.01269531 C21.35414287 -0.02666599 34.80726762 1.7801967 48.60571289 4.57324219 C50.2118042 4.89808594 50.2118042 4.89808594 51.8503418 5.22949219 C63.74437873 7.6985708 75.39160367 10.55605334 86.36743164 15.88574219 C89.22492173 17.25796117 92.113628 18.50861303 95.02978516 19.74902344 C128.6673757 34.11709692 158.28498835 56.86621144 181.04321289 85.44824219 C181.49970215 86.01849121 181.95619141 86.58874023 182.42651367 87.17626953 C185.43984369 91.02323936 187.89146488 94.96939445 190.23071289 99.26074219 C180.74952209 104.21222122 171.04398118 108.42283239 161.16821289 112.51074219 C159.99591125 112.99830994 159.99591125 112.99830994 158.79992676 113.49572754 C145.26263242 119.12024699 131.62124561 124.36439421 117.82543945 129.32397461 C113.47484223 130.89465974 109.13927223 132.50293186 104.84008789 134.20996094 C101.3719243 135.58702589 99.00911765 136.26074219 95.23071289 136.26074219 C95.26213379 135.16741577 95.26213379 135.16741577 95.29418945 134.05200195 C95.62534906 120.74588331 95.85712395 108.17734186 92.10571289 95.32324219 C91.23071289 92.26074219 91.23071289 92.26074219 91.23071289 89.26074219 C83.81209224 90.89781172 76.39579035 92.54520073 68.98071289 94.19824219 C67.87691284 94.44418121 66.77311279 94.69012024 65.63586426 94.94351196 C49.3517154 98.57961879 33.13365309 102.40985431 16.98754883 106.61791992 C16.28883667 106.79788513 15.59012451 106.97785034 14.87023926 107.16326904 C13.02067105 107.6402035 11.17296713 108.12435201 9.32543945 108.60913086 C6.43772261 109.21715518 4.15546532 109.62939285 1.23071289 109.26074219 C-1.59939883 107.30289708 -3.77206178 104.67620218 -6.08178711 102.13574219 C-6.72696289 101.47058594 -7.37213867 100.80542969 -8.03686523 100.12011719 C-12.73514405 95.0489591 -12.73514405 95.0489591 -12.90600586 91.10449219 C-12.86088867 90.16605469 -12.81577148 89.22761719 -12.76928711 88.26074219 C-14.69291476 85.40027814 -14.69291476 85.40027814 -17.26928711 82.88574219 C-18.10459961 82.01175781 -18.93991211 81.13777344 -19.80053711 80.23730469 C-20.45022461 79.58503906 -21.09991211 78.93277344 -21.76928711 78.26074219 C-18.76780829 75.25926337 -14.96055067 74.79195524 -10.95288086 73.75683594 C-10.04484711 73.51737747 -9.13681335 73.27791901 -8.20126343 73.03120422 C-5.20525312 72.24503924 -2.2063348 71.47079324 0.79321289 70.69824219 C1.81226715 70.43362183 2.83132141 70.16900146 3.8812561 69.8963623 C18.99701476 65.97729206 34.16272818 62.34404306 49.41821289 59.01074219 C50.74793625 58.71947952 50.74793625 58.71947952 52.10452271 58.42233276 C54.59732103 57.87887428 57.09129992 57.34142205 59.58618164 56.80761719 C60.32156158 56.64884598 61.05694153 56.49007477 61.81460571 56.32649231 C64.68354064 55.72229951 67.28915271 55.26074219 70.23071289 55.26074219 C57.04898652 38.05126609 34.53357048 27.3923361 13.44555664 23.74121094 C-12.9881239 20.37365882 -38.96987111 26.46999045 -60.47631836 42.42871094 C-79.76801826 57.84235191 -91.95797039 77.25953168 -97.76928711 101.26074219 C-96.70709961 100.85082031 -95.64491211 100.44089844 -94.55053711 100.01855469 C-93.12354506 99.47404456 -91.69645652 98.92978727 -90.26928711 98.38574219 C-89.57319336 98.11632812 -88.87709961 97.84691406 -88.15991211 97.56933594 C-83.41603187 95.76841844 -78.7130261 94.40760056 -73.76928711 93.26074219 C-73.60686523 91.94783203 -73.60686523 91.94783203 -73.44116211 90.60839844 C-71.63341112 81.60117403 -65.57245852 74.61182927 -59.26928711 68.26074219 C-58.7359375 67.72118896 -58.20258789 67.18163574 -57.65307617 66.62573242 C-53.25600415 62.36598517 -48.68814994 58.64625237 -42.45678711 57.82324219 C-41.56991211 57.96761719 -40.68303711 58.11199219 -39.76928711 58.26074219 C-39.10928711 59.25074219 -38.44928711 60.24074219 -37.76928711 61.26074219 C-40.28206808 73.24477449 -49.45766883 84.59422971 -58.76928711 92.26074219 C-61.67734384 94.15393718 -64.635164 95.7765063 -67.76928711 97.26074219 C-68.75928711 97.75574219 -68.75928711 97.75574219 -69.76928711 98.26074219 C-69.03778442 98.78861328 -69.03778442 98.78861328 -68.29150391 99.32714844 C-66.8363432 100.37734568 -65.38145126 101.42791538 -63.92675781 102.47875977 C-62.27447267 103.67081564 -60.62065103 104.86074459 -58.96533203 106.04858398 C-55.39219274 108.61707403 -51.82833734 111.1822613 -48.37084961 113.90527344 C-43.06892528 118.28810524 -43.06892528 118.28810524 -36.58178711 119.76074219 C-35.65366211 119.59574219 -34.72553711 119.43074219 -33.76928711 119.26074219 C-36.1214447 121.61289978 -37.6012243 121.95557479 -40.78100586 122.85449219 C-42.36171875 123.30985352 -42.36171875 123.30985352 -43.97436523 123.77441406 C-45.12356445 124.09990234 -46.27276367 124.42539063 -47.45678711 124.76074219 C-59.67695095 128.28745614 -71.77529558 132.11641089 -83.85009766 136.11035156 C-85.10218018 136.52091797 -86.3542627 136.93148437 -87.64428711 137.35449219 C-88.75545898 137.72251953 -89.86663086 138.09054688 -91.01147461 138.46972656 C-93.76928711 139.26074219 -93.76928711 139.26074219 -96.76928711 139.26074219 C-92.78685488 161.41065099 -81.96274136 177.95595311 -65.76928711 193.26074219 C-68.83013948 195.30131044 -70.41444667 195.7304089 -73.96459961 196.33886719 C-75.05184326 196.52723145 -76.13908691 196.7155957 -77.25927734 196.90966797 C-78.45883057 197.10802246 -79.65838379 197.30637695 -80.89428711 197.51074219 C-82.15893799 197.72327637 -83.42358887 197.93581055 -84.7265625 198.15478516 C-125.44094739 204.93109156 -166.04744276 210.52865864 -207.39428711 210.32324219 C-209.19116084 210.31820756 -210.98803596 210.31364819 -212.78491211 210.30957031 C-217.11307274 210.29874214 -221.44116363 210.28159057 -225.76928711 210.26074219 C-225.76928711 212.24074219 -225.76928711 214.22074219 -225.76928711 216.26074219 C-226.09928711 216.26074219 -226.42928711 216.26074219 -226.76928711 216.26074219 C-226.33321101 187.79686593 -218.58682714 160.0034758 -206.76928711 134.26074219 C-206.40351563 133.45668945 -206.03774414 132.65263672 -205.66088867 131.82421875 C-196.44600854 111.81499152 -184.17716339 93.88307662 -169.76928711 77.26074219 C-169.29394531 76.71095703 -168.81860352 76.16117187 -168.32885742 75.59472656 C-126.51569294 27.66613075 -63.40368405 -0.33373738 0 0 Z " fill="#0E101C" transform="translate(242.769287109375,15.7392578125)"/>
<path d="M0 0 C5.07168741 3.83953307 10.04311109 7.9268853 14.3671875 12.6015625 C14.3671875 13.2615625 14.3671875 13.9215625 14.3671875 14.6015625 C13.39523437 14.82183105 12.42328125 15.04209961 11.421875 15.26904297 C-7.89279675 19.65384094 -27.17069767 24.16043544 -46.3828125 28.9765625 C-47.22344238 29.18698181 -48.06407227 29.39740112 -48.93017578 29.61419678 C-57.85666765 31.85173278 -66.76972083 34.12215307 -75.6328125 36.6015625 C-75.6328125 40.2531824 -71.84778461 42.63509753 -69.3828125 45.1171875 C-67.2136214 48.19666415 -67.55873786 49.91758398 -67.6328125 53.6015625 C-66.40530336 55.51401225 -66.40530336 55.51401225 -64.5703125 56.9765625 C-61.99435545 59.33142942 -59.63280756 61.68207684 -57.3828125 64.3515625 C-54.45001628 67.7599473 -51.33208349 70.94555414 -48.1328125 74.1015625 C-44.42093213 77.76351845 -40.90624607 81.51745444 -37.52734375 85.48828125 C-34.18387016 89.2178054 -30.56800304 92.68287271 -26.98828125 96.18359375 C-24.44472153 98.79464428 -22.85081985 100.71663326 -21.97265625 104.28125 C-20.04596735 109.05584348 -16.77484716 112.09651701 -13.1953125 115.7265625 C-11.84077979 117.12338431 -10.48785869 118.52177112 -9.13671875 119.921875 C-8.53674072 120.53305176 -7.9367627 121.14422852 -7.31860352 121.77392578 C-5.594085 123.6435486 -4.03504633 125.47772237 -2.6328125 127.6015625 C-2.9453125 129.8515625 -2.9453125 129.8515625 -3.6328125 131.6015625 C-6.74955988 132.59175193 -8.11543252 132.86058622 -11.09301758 131.36987305 C-11.93759521 130.74894775 -12.78217285 130.12802246 -13.65234375 129.48828125 C-14.59271484 128.81732422 -15.53308594 128.14636719 -16.50195312 127.45507812 C-17.95891602 126.38290039 -17.95891602 126.38290039 -19.4453125 125.2890625 C-26.56028786 119.71048575 -26.56028786 119.71048575 -34.83203125 116.46484375 C-39.70027366 115.35910729 -42.72926039 113.10489185 -46.6328125 110.1015625 C-47.31214844 109.60269531 -47.99148437 109.10382813 -48.69140625 108.58984375 C-50.38435977 107.31927702 -52.01503445 105.96656273 -53.6328125 104.6015625 C-53.6328125 103.9415625 -53.6328125 103.2815625 -53.6328125 102.6015625 C-53.1378125 102.1478125 -52.6428125 101.6940625 -52.1328125 101.2265625 C-50.18062576 99.48027283 -50.18062576 99.48027283 -50.6328125 95.6015625 C-52.8375712 93.79246109 -52.8375712 93.79246109 -55.6328125 92.3515625 C-56.5609375 91.83078125 -57.4890625 91.31 -58.4453125 90.7734375 C-59.528125 90.19335938 -59.528125 90.19335938 -60.6328125 89.6015625 C-62.26031287 91.92479703 -62.26031287 91.92479703 -63.6328125 94.6015625 C-63.3028125 95.5915625 -62.9728125 96.5815625 -62.6328125 97.6015625 C-62.46282231 99.7640607 -62.36671428 101.93288963 -62.3203125 104.1015625 C-62.26423828 105.81859375 -62.26423828 105.81859375 -62.20703125 107.5703125 C-62.6328125 110.6015625 -62.6328125 110.6015625 -64.625 112.328125 C-65.28757812 112.74835938 -65.95015625 113.16859375 -66.6328125 113.6015625 C-66.87333105 115.182113 -67.09744246 116.76660096 -67.24633789 118.35839844 C-69.05860822 128.87712224 -75.10630396 139.63857355 -79.2578125 149.4765625 C-79.83611318 150.85148862 -80.41423888 152.22648835 -80.9921875 153.6015625 C-83.51949614 159.61004984 -86.06072034 165.6121121 -88.6328125 171.6015625 C-94.03421538 171.10989634 -98.12809262 169.69111739 -102.8828125 167.0390625 C-103.5325 166.68263672 -104.1821875 166.32621094 -104.8515625 165.95898438 C-113.26424761 161.24754951 -120.85100627 156.11122979 -126.96484375 148.57421875 C-128.68481266 146.54006348 -130.53862664 144.83028658 -132.5078125 143.0390625 C-144.02237612 131.63607411 -151.67212488 114.5246014 -152.6328125 98.6015625 C-146.8402644 96.69401515 -141.0459222 94.79204618 -135.25 92.89477539 C-133.28695765 92.25137288 -131.32437573 91.60656356 -129.36230469 90.96020508 C-116.8657475 86.8447831 -104.34758667 82.98722925 -91.6328125 79.6015625 C-92.74644165 79.6797522 -92.74644165 79.6797522 -93.88256836 79.75952148 C-97.02731873 79.57890422 -98.14609443 78.93718233 -100.63671875 77.07421875 C-101.37229004 76.5330542 -102.10786133 75.99188965 -102.86572266 75.43432617 C-103.6344873 74.85013916 -104.40325195 74.26595215 -105.1953125 73.6640625 C-105.98728027 73.07665283 -106.77924805 72.48924316 -107.59521484 71.8840332 C-109.94952185 70.13417173 -112.29178048 68.36912534 -114.6328125 66.6015625 C-115.91460501 65.64481487 -117.19708723 64.68899008 -118.48046875 63.734375 C-121.20743138 61.70257427 -123.92377995 59.65724014 -126.6328125 57.6015625 C-124.25913825 56.019113 -122.04077139 54.80554195 -119.5078125 53.5390625 C-111.32833229 48.95961241 -105.78787899 42.25955037 -100.6953125 34.5390625 C-100.12876953 33.69130249 -100.12876953 33.69130249 -99.55078125 32.82641602 C-96.81897825 28.49379141 -95.57006109 24.57701357 -94.6328125 19.6015625 C-95.69974388 18.34308764 -95.69974388 18.34308764 -98.1328125 18.1640625 C-107.29312075 19.30910103 -114.98983881 27.8191422 -120.6328125 34.6015625 C-125.96113662 42.14669715 -125.96113662 42.14669715 -128.92382812 50.66162109 C-129.6328125 52.6015625 -129.6328125 52.6015625 -131.73413086 53.79003906 C-132.63784424 54.10424805 -133.54155762 54.41845703 -134.47265625 54.7421875 C-135.45298828 55.09023437 -136.43332031 55.43828125 -137.44335938 55.796875 C-138.47525391 56.14492187 -139.50714844 56.49296875 -140.5703125 56.8515625 C-141.59833984 57.21507813 -142.62636719 57.57859375 -143.68554688 57.953125 C-151.26744596 60.6015625 -151.26744596 60.6015625 -153.6328125 60.6015625 C-150.64827294 37.91906183 -136.28467422 17.2564313 -119.265625 2.609375 C-109.95210731 -4.49321861 -99.79257861 -9.83864456 -88.6328125 -13.3984375 C-87.95831055 -13.62547363 -87.28380859 -13.85250977 -86.58886719 -14.08642578 C-57.11520448 -23.83844975 -25.09993687 -18.14692974 0 0 Z " fill="#F26A22" transform="translate(298.6328125,56.3984375)"/>
<path d="M0 0 C0.99 1.485 0.99 1.485 2 3 C-0.51278097 14.9840323 -9.68838172 26.33348752 -19 34 C-21.90805673 35.89319499 -24.86587689 37.51576411 -28 39 C-28.99 39.495 -28.99 39.495 -30 40 C-29.26849731 40.52787109 -29.26849731 40.52787109 -28.5222168 41.06640625 C-27.06705609 42.1166035 -25.61216415 43.16717319 -24.1574707 44.21801758 C-22.50518556 45.41007345 -20.85136392 46.6000024 -19.19604492 47.7878418 C-15.62290563 50.35633184 -12.05905023 52.92151911 -8.6015625 55.64453125 C-3.29963817 60.02736305 -3.29963817 60.02736305 3.1875 61.5 C4.115625 61.335 5.04375 61.17 6 61 C3.64784241 63.35215759 2.16806281 63.69483261 -1.01171875 64.59375 C-2.59243164 65.04911133 -2.59243164 65.04911133 -4.20507812 65.51367188 C-5.35427734 65.83916016 -6.50347656 66.16464844 -7.6875 66.5 C-19.90766384 70.02671395 -32.00600847 73.8556687 -44.08081055 77.84960938 C-45.95893433 78.46545898 -45.95893433 78.46545898 -47.875 79.09375 C-48.98617187 79.46177734 -50.09734375 79.82980469 -51.2421875 80.20898438 C-54 81 -54 81 -57 81 C-53.01756777 103.1499088 -42.19345425 119.69521092 -26 135 C-29.06085237 137.04056825 -30.64515956 137.46966671 -34.1953125 138.078125 C-35.28255615 138.26648926 -36.3697998 138.45485352 -37.48999023 138.64892578 C-38.68954346 138.84728027 -39.88909668 139.04563477 -41.125 139.25 C-42.38965088 139.46253418 -43.65430176 139.67506836 -44.95727539 139.89404297 C-85.67166028 146.67034937 -126.27815565 152.26791646 -167.625 152.0625 C-169.42187373 152.05746538 -171.21874885 152.052906 -173.015625 152.04882812 C-177.34378563 152.03799995 -181.67187652 152.02084838 -186 152 C-186 153.98 -186 155.96 -186 158 C-186.33 158 -186.66 158 -187 158 C-186.69131209 137.85109819 -184.42637136 109.13955703 -173 92 C-168.20387204 88.99037411 -163.05915761 86.53770942 -158 84 C-157.05882324 83.52739746 -156.11764648 83.05479492 -155.14794922 82.56787109 C-120.66847811 65.37493029 -84.81028909 51.7865048 -48.4375 39.1875 C-47.20628418 38.76057861 -45.97506836 38.33365723 -44.70654297 37.89379883 C-43.58521973 37.5098999 -42.46389648 37.12600098 -41.30859375 36.73046875 C-40.32689209 36.39426514 -39.34519043 36.05806152 -38.33374023 35.71166992 C-36 35 -36 35 -34 35 C-33.83757812 33.68708984 -33.83757812 33.68708984 -33.671875 32.34765625 C-31.86412401 23.34043185 -25.80317141 16.35108708 -19.5 10 C-18.96665039 9.46044678 -18.43330078 8.92089355 -17.88378906 8.36499023 C-12.89812068 3.53502904 -7.35025008 -1.19655234 0 0 Z " fill="#A24824" transform="translate(203,74)"/>
<path d="M0 0 C0.94278809 0.16097168 1.88557617 0.32194336 2.85693359 0.48779297 C42.76281986 7.62437218 79.30236749 24.99846097 111 50 C111.55220215 50.4336084 112.1044043 50.8672168 112.67333984 51.31396484 C126.78960933 62.51411595 140.21159803 75.55124736 151 90 C151.70769531 90.92570801 151.70769531 90.92570801 152.4296875 91.87011719 C161.40633919 103.64359879 169.04972553 115.93368502 176 129 C176.40702148 129.75796875 176.81404297 130.5159375 177.23339844 131.296875 C190.89723212 157.13560827 199.10924721 186.99163185 202 216 C202.11085938 217.06089844 202.22171875 218.12179688 202.3359375 219.21484375 C207.19425864 274.42900693 193.6064141 332.19517957 162 378 C161.61376465 378.56879883 161.2275293 379.13759766 160.82958984 379.72363281 C154.49581907 389.03113878 147.48566159 397.59961343 140 406 C139.51321777 406.54994629 139.02643555 407.09989258 138.52490234 407.66650391 C133.01704447 413.87141818 127.39117188 419.69111213 121 425 C120.08089844 425.80695313 119.16179687 426.61390625 118.21484375 427.4453125 C78.04145023 462.59224777 23.42913563 485.90504543 -30.35546875 486.203125 C-31.21143646 486.21018463 -32.06740417 486.21724426 -32.9493103 486.22451782 C-69.14569495 486.45524032 -69.14569495 486.45524032 -86 483 C-87.49490967 482.69400879 -87.49490967 482.69400879 -89.02001953 482.38183594 C-135.74685106 472.49689883 -180.88309425 451.1262461 -214 416 C-214.825 415.175 -215.65 414.35 -216.5 413.5 C-217.325 412.675 -218.15 411.85 -219 411 C-219.6084375 410.43796875 -220.216875 409.8759375 -220.84375 409.296875 C-228.55392477 401.97779605 -234.77608974 393.57875287 -241 385 C-241.75651855 383.96190186 -241.75651855 383.96190186 -242.52832031 382.90283203 C-279.95057803 330.91924037 -294.06920737 264.65998532 -284.03515625 201.6796875 C-276.7953583 159.67552877 -259.67105371 121.16916702 -233 88 C-232.18273437 86.97648437 -231.36546875 85.95296875 -230.5234375 84.8984375 C-219.77663392 71.69786614 -207.59891658 59.26152379 -194 49 C-193.47325684 48.59152832 -192.94651367 48.18305664 -192.40380859 47.76220703 C-160.75480939 23.23899224 -123.46872391 6.73889167 -84 0 C-83.0507666 -0.16226074 -82.1015332 -0.32452148 -81.12353516 -0.49169922 C-54.48171931 -4.81380194 -26.58555566 -4.54450086 0 0 Z M-84 8 C-84.90524414 8.17160645 -85.81048828 8.34321289 -86.74316406 8.52001953 C-128.60273119 16.70039948 -168.34201204 35.94551111 -199.75 64.9375 C-201.72789558 66.75057094 -203.75196817 68.47039014 -205.8125 70.1875 C-237.74400726 98.20771822 -259.54072194 138.56276341 -271 179 C-271.35835938 180.23363281 -271.71671875 181.46726563 -272.0859375 182.73828125 C-275.23368825 194.32342406 -276.67175249 206.08608837 -278 218 C-278.09498779 218.80228027 -278.18997559 219.60456055 -278.2878418 220.43115234 C-281.86107716 252.52815584 -277.29515205 285.47891936 -267 316 C-266.72494629 316.85561523 -266.44989258 317.71123047 -266.16650391 318.59277344 C-255.17930697 352.61404313 -235.63049221 382.35729578 -211 408 C-210.1440625 408.8971875 -209.288125 409.794375 -208.40625 410.71875 C-202.63219566 416.63898294 -196.49331543 421.88805384 -190 427 C-189.04867187 427.77988281 -188.09734375 428.55976563 -187.1171875 429.36328125 C-177.68812516 436.9234118 -167.48114422 443.0129168 -157 449 C-156.31083496 449.39493652 -155.62166992 449.78987305 -154.91162109 450.19677734 C-145.28184817 455.6629822 -135.31921764 460.00641202 -125 464 C-124.00097656 464.39058594 -123.00195312 464.78117187 -121.97265625 465.18359375 C-111.63387231 469.0853081 -101.05811147 471.89267338 -90.25 474.125 C-89.12766968 474.36283203 -89.12766968 474.36283203 -87.98266602 474.60546875 C-72.87441903 477.60412425 -57.73558493 478.37815614 -42.375 478.3125 C-41.50625244 478.31100952 -40.63750488 478.30951904 -39.74243164 478.3079834 C-19.99356373 478.24731517 -1.01636817 476.5222006 18 471 C19.57285496 470.56357964 21.14577503 470.12739388 22.71875 469.69140625 C47.23882673 462.75466333 69.95566359 452.3916107 91 438 C91.56493164 437.61908203 92.12986328 437.23816406 92.71191406 436.84570312 C112.0035535 423.78173096 129.88001974 407.56279502 144 389 C144.41137207 388.47035645 144.82274414 387.94071289 145.24658203 387.39501953 C162.09637954 365.64550288 174.79047 341.44794214 183.25488281 315.29003906 C183.94740497 313.16164528 184.66820715 311.0453763 185.3984375 308.9296875 C195.83085748 278.07776101 198.07352367 243.03770541 193 211 C192.72711681 208.41688239 192.45635206 205.83354028 192.1875 203.25 C186.84116316 158.26185375 163.57156663 114.81860634 133 82 C131.78661781 80.60855334 130.57802197 79.21291361 129.375 77.8125 C122.8615853 70.37709509 115.71208163 64.1782462 108 58 C106.81083984 57.01 106.81083984 57.01 105.59765625 56 C76.10837987 31.66276026 40.20164517 16.63670135 3 9 C2.0011377 8.78827148 1.00227539 8.57654297 -0.02685547 8.35839844 C-27.104463 2.79746423 -56.8477452 2.76269079 -84 8 Z " fill="#10111C" transform="translate(287,3)"/>
<path d="M0 0 C1.9296875 1.34765625 1.9296875 1.34765625 3.875 3.0625 C7.90274475 6.33335312 12.06654071 8.87476412 16.625 11.3125 C17.24616699 11.64967041 17.86733398 11.98684082 18.50732422 12.33422852 C22.59062701 14.47425972 26.53040141 15.86823789 31 17 C17.59104206 50.91796924 17.59104206 50.91796924 12 62 C11.36940674 61.98477295 10.73881348 61.9695459 10.08911133 61.95385742 C-0.08267989 61.82438705 -10.1746288 62.58130786 -20.3125 63.3125 C-21.25565063 63.37936005 -22.19880127 63.44622009 -23.17053223 63.5151062 C-62.00969849 66.25888509 -62.00969849 66.25888509 -100.4609375 72.16015625 C-103.81133174 72.79879224 -107.16830982 73.3507029 -110.5390625 73.87109375 C-123.00120189 75.80810252 -135.06762019 78.37420234 -147.2265625 81.73046875 C-150.79891979 82.7115112 -154.32403338 83.49318068 -158 84 C-161.42652256 66.77928341 -163.04936537 50.42853793 -163.125 32.875 C-163.12983398 31.79500732 -163.13466797 30.71501465 -163.13964844 29.60229492 C-163.13739258 28.57595947 -163.13513672 27.54962402 -163.1328125 26.4921875 C-163.13168457 25.57808105 -163.13055664 24.66397461 -163.12939453 23.72216797 C-162.98827689 20.75337232 -162.54048235 17.9203222 -162 15 C-160.95473145 14.98018066 -159.90946289 14.96036133 -158.83251953 14.93994141 C-138.15778858 14.53538521 -117.5987585 13.91550209 -97 12 C-95.93907135 11.90174927 -94.8781427 11.80349854 -93.7850647 11.70227051 C-76.02826393 10.02913274 -58.44660971 7.74178357 -40.82446289 4.98339844 C-37.51839408 4.46592319 -34.21150352 3.95461845 -30.90390682 3.44705772 C-27.69464898 2.95428837 -24.48598101 2.45772955 -21.27734375 1.9609375 C-19.50894386 1.68750015 -19.50894386 1.68750015 -17.70481873 1.40853882 C-16.61749954 1.23811066 -15.53018036 1.0676825 -14.40991211 0.89208984 C-13.45813583 0.74347504 -12.50635956 0.59486023 -11.52574158 0.44174194 C-9.04321244 0.04349446 -9.04321244 0.04349446 -6.81861877 -0.57113647 C-4.25335941 -1.17607149 -2.50866266 -0.75889011 0 0 Z " fill="#0E0F1C" transform="translate(179,211)"/>
<path d="M0 0 C1.25490234 0.9590625 1.25490234 0.9590625 2.53515625 1.9375 C15.96862228 12.90020489 27.99638671 24.60355447 38.8125 38.1875 C39.26898926 38.75774902 39.72547852 39.32799805 40.19580078 39.91552734 C43.2091308 43.76249717 45.66075199 47.70865226 48 52 C38.5188092 56.95147903 28.81326829 61.16209021 18.9375 65.25 C18.15596558 65.57504517 17.37443115 65.90009033 16.56921387 66.23498535 C3.03191952 71.85950481 -10.60946728 77.10365202 -24.40527344 82.06323242 C-28.75587066 83.63391755 -33.09144066 85.24218967 -37.390625 86.94921875 C-40.85878859 88.3262837 -43.22159524 89 -47 89 C-46.97905273 88.27111572 -46.95810547 87.54223145 -46.93652344 86.79125977 C-46.60536383 73.48514112 -46.37358894 60.91659967 -50.125 48.0625 C-51 45 -51 45 -51 42 C-58.41862065 43.63706953 -65.83492254 45.28445854 -73.25 46.9375 C-74.35380005 47.18343903 -75.4576001 47.42937805 -76.59484863 47.68276978 C-92.87899749 51.3188766 -109.0970598 55.14911212 -125.24316406 59.35717773 C-125.94187622 59.53714294 -126.64058838 59.71710815 -127.36047363 59.90252686 C-129.21004184 60.37946131 -131.05774577 60.86360983 -132.90527344 61.34838867 C-135.79299028 61.95641299 -138.07524757 62.36865067 -141 62 C-143.83011172 60.04215489 -146.00277467 57.41545999 -148.3125 54.875 C-148.95767578 54.20984375 -149.60285156 53.5446875 -150.26757812 52.859375 C-154.96585694 47.78821691 -154.96585694 47.78821691 -155.13671875 43.84375 C-155.06904297 42.43609375 -155.06904297 42.43609375 -155 41 C-156.92362765 38.13953595 -156.92362765 38.13953595 -159.5 35.625 C-160.3353125 34.75101563 -161.170625 33.87703125 -162.03125 32.9765625 C-162.6809375 32.32429688 -163.330625 31.67203125 -164 31 C-160.99851661 27.99851661 -157.19126714 27.53122386 -153.18359375 26.49609375 C-152.27651169 26.25686188 -151.36942963 26.01763 -150.43486023 25.77114868 C-147.43790683 24.9846796 -144.43803215 24.21019577 -141.4375 23.4375 C-139.89845001 23.03807693 -139.89845001 23.03807693 -138.32830811 22.63058472 C-118.05154017 17.37683119 -97.66362948 12.75794374 -77.1663208 8.45568848 C-75.08922049 8.01876765 -73.01294702 7.57816193 -70.93701172 7.13574219 C-65.62845197 6.00455696 -60.31905928 4.87718455 -55.00390625 3.77734375 C-54.26986572 3.62515381 -53.5358252 3.47296387 -52.77954102 3.31616211 C-51 3 -51 3 -49 3 C-49 2.34 -49 1.68 -49 1 C-48.34 1 -47.68 1 -47 1 C-47 1.66 -47 2.32 -47 3 C-46.46084961 2.88897949 -45.92169922 2.77795898 -45.36621094 2.66357422 C-38.0391298 1.17502616 -30.69709331 -0.22767087 -23.33056641 -1.50683594 C-21.93470472 -1.75383892 -20.54046059 -2.01015036 -19.14794922 -2.27539062 C-17.10725267 -2.66264129 -15.06311208 -3.01787035 -13.015625 -3.3671875 C-11.81196289 -3.58487793 -10.60830078 -3.80256836 -9.36816406 -4.02685547 C-5.08616394 -3.99271369 -3.30588582 -2.62607392 0 0 Z " fill="#A34924" transform="translate(385,63)"/>
<path d="M0 0 C6.01741835 20.39475004 6.45646651 37.43594186 1 58 C0.71125 59.09957031 0.4225 60.19914062 0.125 61.33203125 C-3.4666125 73.30941759 -9.81945142 84.57838529 -18 94 C-18.66515625 94.80824219 -19.3303125 95.61648437 -20.015625 96.44921875 C-31.33419452 109.74243079 -46.25530591 119.220043 -63 124 C-63.5859375 122.6328125 -64.171875 121.265625 -64.7578125 119.8984375 C-65.13309082 119.0228418 -65.50836914 118.14724609 -65.89501953 117.24511719 C-66.72167376 115.31614793 -67.54816865 113.38711039 -68.37451172 111.45800781 C-71.02551105 105.2696111 -71.02551105 105.2696111 -73.6875 99.0859375 C-75.13450968 95.72793134 -76.5692312 92.36495626 -78 89 C-78.29680664 88.30890137 -78.59361328 87.61780273 -78.89941406 86.90576172 C-85.13210947 72.3596095 -85.13210947 72.3596095 -86.25 66.5 C-86.4975 65.345 -86.745 64.19 -87 63 C-87.99 62.67 -88.98 62.34 -90 62 C-90 59.69 -90 57.38 -90 55 C-79.32172103 61.70047523 -79.32172103 61.70047523 -75.25 64.8125 C-72.17106296 67.1475942 -72.17106296 67.1475942 -68.76953125 67.83203125 C-64.35563959 69.19965157 -61.186339 71.2427548 -57.4375 73.875 C-56.80392578 74.30941406 -56.17035156 74.74382812 -55.51757812 75.19140625 C-53.10211 76.84815369 -50.69129721 78.51052979 -48.30078125 80.203125 C-45.00209312 82.49433202 -43.06671768 83.47843737 -39 83 C-39.52749183 79.24966175 -40.29191586 77.19979333 -42.875 74.4375 C-43.80505859 73.41849609 -43.80505859 73.41849609 -44.75390625 72.37890625 C-45.95781639 71.10380838 -47.16279178 69.8296903 -48.37451172 68.56201172 C-49.36201499 67.5277822 -50.34600156 66.49018481 -51.32666016 65.44946289 C-52.29772732 64.42047634 -53.27758118 63.39969297 -54.26708984 62.38842773 C-57.38128534 59.09042736 -58.70940257 56.30003597 -60 52 C-61.29597596 50.01675343 -61.29597596 50.01675343 -62.9375 48.3125 C-63.55496094 47.63832031 -64.17242187 46.96414062 -64.80859375 46.26953125 C-67.80799071 43.16320392 -70.8649383 40.11643089 -73.93554688 37.08081055 C-79.36464459 31.69395166 -84.23222961 25.97025845 -89 20 C-81.44476777 18.12672918 -73.88863623 16.25713062 -66.33144283 14.39178944 C-62.81958096 13.52484426 -59.30800125 12.65679387 -55.79711914 11.78588867 C-42.16545796 8.40531786 -28.5319558 5.03868039 -14.81640625 2.01171875 C-13.88432846 1.80327835 -12.95225067 1.59483795 -11.9919281 1.38008118 C-11.13551224 1.19495468 -10.27909637 1.00982819 -9.39672852 0.8190918 C-8.66261246 0.65934372 -7.9284964 0.49959564 -7.1721344 0.33500671 C-4.75370713 -0.03798557 -2.44327557 -0.0562102 0 0 Z " fill="#F16A22" transform="translate(334,105)"/>
<path d="M0 0 C3.63 2.31 7.26 4.62 11 7 C10.67 8.98 10.34 10.96 10 13 C9.01 13.66 8.02 14.32 7 15 C6.26393501 18.56769552 6.26393501 18.56769552 6 22 C7.32 22.33 8.64 22.66 10 23 C10.24105469 24.27359375 10.48210937 25.5471875 10.73046875 26.859375 C11.94213715 32.3017767 14.0333391 37.17933789 16.3125 42.25 C18.77807279 47.80278915 21.16460236 53.35597879 23.31640625 59.0390625 C26.21674399 66.66851683 29.39949064 74.17004486 32.58828735 81.68209839 C39.19013253 97.23863498 45.65987029 112.84168008 51.97973633 128.51489258 C52.87960289 130.70674271 53.8196486 132.8738393 54.78125 135.0390625 C55.98789842 137.97059937 56.28449082 139.87060096 56 143 C54.68 143 53.36 143 52 143 C51.20688633 141.27149655 50.4155741 139.54216646 49.625 137.8125 C49.18414062 136.84957031 48.74328125 135.88664063 48.2890625 134.89453125 C47.12930255 132.29034301 46.05874614 129.64686534 45 127 C25.2 126.505 25.2 126.505 5 126 C5 131.94 5 137.88 5 144 C3.35 144.33 1.7 144.66 0 145 C0 138.73 0 132.46 0 126 C-13.53 126 -27.06 126 -41 126 C-41.99 128.97 -42.98 131.94 -44 135 C-44.96788417 137.68060101 -45.98331484 140.33725314 -47 143 C-48.65 143 -50.3 143 -52 143 C-51.38272538 137.9510102 -49.80028916 133.54437946 -47.875 128.875 C-47.5344458 128.03590088 -47.1938916 127.19680176 -46.84301758 126.33227539 C-42.53755284 115.77400765 -38.12114746 105.2603459 -33.72460938 94.73974609 C-29.28991628 84.12410885 -24.90984431 73.48833001 -20.58862305 62.82592773 C-16.4939539 52.7238887 -12.32634419 42.66111687 -7.91796875 32.69140625 C-6.97630823 29.93053776 -6.93530761 27.88627569 -7 25 C-5.625 23.1875 -5.625 23.1875 -4 22 C-3.34 22 -2.68 22 -2 22 C-2.10828125 20.66195312 -2.10828125 20.66195312 -2.21875 19.296875 C-2.35796875 17.54117188 -2.35796875 17.54117188 -2.5 15.75 C-2.5928125 14.58984375 -2.685625 13.4296875 -2.78125 12.234375 C-3.16593182 6.54657955 -3.10915689 5.18192815 0 0 Z " fill="#090909" transform="translate(238,145)"/>
<path d="M0 0 C5.07168741 3.83953307 10.04311109 7.9268853 14.3671875 12.6015625 C14.3671875 13.2615625 14.3671875 13.9215625 14.3671875 14.6015625 C13.39523437 14.82183105 12.42328125 15.04209961 11.421875 15.26904297 C-7.89279675 19.65384094 -27.17069767 24.16043544 -46.3828125 28.9765625 C-47.22344238 29.18698181 -48.06407227 29.39740112 -48.93017578 29.61419678 C-51.34716742 30.22004574 -53.76356763 30.82818449 -56.1796875 31.4375 C-56.92762573 31.62553192 -57.67556396 31.81356384 -58.44616699 32.0072937 C-63.49389713 33.28567297 -68.49838631 34.67893004 -73.47753906 36.20556641 C-75.90695126 36.65193099 -77.3258036 36.44565019 -79.6328125 35.6015625 C-81.52734375 34.03515625 -81.52734375 34.03515625 -83.4453125 32.0390625 C-84.13367188 31.32492188 -84.82203125 30.61078125 -85.53125 29.875 C-88.17130716 27.01902738 -90.75077401 24.11801277 -93.28515625 21.16796875 C-95.17013305 18.83851831 -95.17013305 18.83851831 -98.1328125 18.1640625 C-107.29312075 19.30910103 -114.98983881 27.8191422 -120.6328125 34.6015625 C-125.96113662 42.14669715 -125.96113662 42.14669715 -128.92382812 50.66162109 C-129.6328125 52.6015625 -129.6328125 52.6015625 -131.73413086 53.79003906 C-132.63784424 54.10424805 -133.54155762 54.41845703 -134.47265625 54.7421875 C-135.45298828 55.09023437 -136.43332031 55.43828125 -137.44335938 55.796875 C-138.47525391 56.14492187 -139.50714844 56.49296875 -140.5703125 56.8515625 C-141.59833984 57.21507813 -142.62636719 57.57859375 -143.68554688 57.953125 C-151.26744596 60.6015625 -151.26744596 60.6015625 -153.6328125 60.6015625 C-150.64827294 37.91906183 -136.28467422 17.2564313 -119.265625 2.609375 C-109.95210731 -4.49321861 -99.79257861 -9.83864456 -88.6328125 -13.3984375 C-87.95831055 -13.62547363 -87.28380859 -13.85250977 -86.58886719 -14.08642578 C-57.11520448 -23.83844975 -25.09993687 -18.14692974 0 0 Z " fill="#F16A22" transform="translate(298.6328125,56.3984375)"/>
<path d="M0 0 C0.20753906 0.680625 0.41507812 1.36125 0.62890625 2.0625 C4.67344719 14.78841961 9.54282648 26.63391701 17.30078125 37.546875 C18.7641817 39.65955427 19.88493784 41.69616767 21 44 C-61.78638509 62.16410137 -61.78638509 62.16410137 -102.5 62.1875 C-104.22863281 62.20586914 -104.22863281 62.20586914 -105.9921875 62.22460938 C-107.09820312 62.22654297 -108.20421875 62.22847656 -109.34375 62.23046875 C-110.33568359 62.23457764 -111.32761719 62.23868652 -112.34960938 62.24291992 C-115.0535807 61.99508909 -116.68923308 61.38323933 -119 60 C-119.49811407 57.08247475 -119.58315583 54.92774791 -117.96875 52.359375 C-98.91540087 31.5562285 -61.58009191 20.34174116 -35.64257812 11.89770508 C-32.34595664 10.7778162 -29.19839715 9.37378435 -26 8 C-21.91658588 6.54117147 -17.80396692 5.17480174 -13.6875 3.8125 C-12.04297852 3.26045898 -12.04297852 3.26045898 -10.36523438 2.69726562 C-9.32044922 2.34986328 -8.27566406 2.00246094 -7.19921875 1.64453125 C-5.77355591 1.17043823 -5.77355591 1.17043823 -4.3190918 0.68676758 C-2 0 -2 0 0 0 Z " fill="#0E0F1C" transform="translate(145,156)"/>
<path d="M0 0 C4.22630068 1.59615631 6.76938164 4.77062329 9.6875 8.0625 C10.74970981 9.23971992 11.8135256 10.41549266 12.87890625 11.58984375 C13.66612061 12.45778564 13.66612061 12.45778564 14.46923828 13.34326172 C17.29344545 16.39989168 20.27246888 19.29745148 23.2578125 22.1953125 C25 24 25 24 27 27 C26.896875 27.9075 26.79375 28.815 26.6875 29.75 C27.10569321 34.09920941 28.88800813 35.30131282 32.01953125 38.1640625 C33.92616317 39.93155165 35.5758653 41.76373849 37.25 43.75 C40.18279622 47.1583848 43.30072901 50.34399164 46.5 53.5 C50.21188037 57.16195595 53.72656643 60.91589194 57.10546875 64.88671875 C60.44894234 68.6162429 64.06480946 72.08131021 67.64453125 75.58203125 C70.18809097 78.19308178 71.78199265 80.11507076 72.66015625 83.6796875 C74.58684515 88.45428098 77.85796534 91.49495451 81.4375 95.125 C82.79203271 96.52182181 84.14495381 97.92020862 85.49609375 99.3203125 C86.09607178 99.93148926 86.6960498 100.54266602 87.31420898 101.17236328 C89.0387275 103.0419861 90.59776617 104.87615987 92 107 C91.6875 109.25 91.6875 109.25 91 111 C87.88325262 111.99018943 86.51737998 112.25902372 83.53979492 110.76831055 C82.69521729 110.14738525 81.85063965 109.52645996 80.98046875 108.88671875 C80.04009766 108.21576172 79.09972656 107.54480469 78.13085938 106.85351562 C77.15955078 106.13873047 76.18824219 105.42394531 75.1875 104.6875 C68.07252464 99.10892325 68.07252464 99.10892325 59.80078125 95.86328125 C54.93253884 94.75754479 51.90355211 92.50332935 48 89.5 C47.32066406 89.00113281 46.64132813 88.50226563 45.94140625 87.98828125 C44.24845273 86.71771452 42.61777805 85.36500023 41 84 C41 83.34 41 82.68 41 82 C41.495 81.54625 41.99 81.0925 42.5 80.625 C44.45218674 78.87871033 44.45218674 78.87871033 44 75 C41.7952413 73.19089859 41.7952413 73.19089859 39 71.75 C38.071875 71.22921875 37.14375 70.7084375 36.1875 70.171875 C35.1046875 69.59179688 35.1046875 69.59179688 34 69 C33.566875 69.804375 33.13375 70.60875 32.6875 71.4375 C31 74 31 74 28 75 C26.07055664 73.96777344 26.07055664 73.96777344 23.91015625 72.359375 C23.12576172 71.78316406 22.34136719 71.20695312 21.53320312 70.61328125 C20.71787109 69.99839844 19.90253906 69.38351563 19.0625 68.75 C17.84530273 67.85087891 17.84530273 67.85087891 16.60351562 66.93359375 C10.46732859 62.39311737 10.46732859 62.39311737 7.9675293 60.2902832 C5.87492268 58.64170893 5.87492268 58.64170893 2.296875 59.18359375 C-3.25780908 59.38784786 -6.54379948 56.36685103 -10.75 53.0625 C-11.52843262 52.47509033 -12.30686523 51.88768066 -13.10888672 51.2824707 C-14.67665248 50.09702769 -16.23846359 48.90366466 -17.79394531 47.70214844 C-20.35404608 45.72682501 -22.94437184 43.79510017 -25.54003906 41.86694336 C-27.70302278 40.25736629 -29.85222094 38.62978529 -32 37 C-29.62632575 35.4175505 -27.40795889 34.20397945 -24.875 32.9375 C-16.66919588 28.34331193 -11.14345785 21.63562697 -6.0625 13.875 C-5.68480469 13.30144775 -5.30710938 12.72789551 -4.91796875 12.13696289 C-2.421424 8.1546779 -1.09703203 4.51448783 0 0 Z " fill="#FEFCFC" transform="translate(204,77)"/>
<path d="M0 0 C2.00723062 1.96340462 3.70210467 3.82138233 5.4375 6 C5.91614502 6.58289795 6.39479004 7.1657959 6.88793945 7.76635742 C10.56911328 12.30744946 13.94553555 17.0123302 17 22 C14.52719433 24.85676875 11.95758145 26.1068007 8.515625 27.609375 C7.37134033 28.10961182 6.22705566 28.60984863 5.0480957 29.12524414 C3.78238063 29.66756946 2.51633859 30.20913221 1.25 30.75 C0.28457779 31.16619095 0.28457779 31.16619095 -0.7003479 31.59078979 C-21.42595945 40.51253644 -42.5653422 48.58290395 -63.80419922 56.19799805 C-65.3053178 56.74627184 -66.79901558 57.31518528 -68.28564453 57.90161133 C-71.79842019 59.28655521 -74.16453328 60 -78 60 C-77.97905273 59.27111572 -77.95810547 58.54223145 -77.93652344 57.79125977 C-77.60611056 44.51514472 -77.36398504 31.98012213 -81.125 19.16015625 C-82 16 -82 16 -82 12 C-61.83642676 7.58537976 -41.82369424 3.85975138 -21.31787109 1.43115234 C-16.80633131 0.84488455 -12.32986424 0.07578113 -7.85083008 -0.71948242 C-4.90243795 -1.00959997 -2.82263357 -0.88053438 0 0 Z " fill="#0E101C" transform="translate(416,92)"/>
<path d="M0 0 C2.41233431 2.41233431 3.18013745 4.53336735 4.46875 7.6953125 C4.95190674 8.87287109 5.43506348 10.05042969 5.93286133 11.26367188 C6.45529234 12.55076036 6.97767051 13.83787031 7.5 15.125 C8.04462196 16.45660285 8.58979447 17.78798066 9.13549805 19.11914062 C9.96670659 21.14707063 10.79750255 23.17515997 11.62638855 25.20404053 C13.61106713 30.06147353 15.62578182 34.90565039 17.65625 39.74414062 C22.16931156 50.5007789 26.58529924 61.29659491 30.97567749 72.10375977 C31.653498 73.77212917 32.33189504 75.44026447 33.01089478 77.1081543 C33.9676108 79.45931191 34.92170043 81.8115179 35.875 84.1640625 C36.16102585 84.8662088 36.4470517 85.5683551 36.741745 86.29177856 C38.30860013 90.16861055 39.67468763 94.0240629 41 98 C27.8 98 14.6 98 1 98 C1 103.94 1 109.88 1 116 C0.67 116 0.34 116 0 116 C0 77.72 0 39.44 0 0 Z " fill="#14121D" transform="translate(242,173)"/>
<path d="M0 0 C0.33 0 0.66 0 1 0 C1 32.34 1 64.68 1 98 C-12.2 98 -25.4 98 -39 98 C-38.27588746 94.37943732 -37.60409835 91.7150349 -36.2409668 88.39453125 C-35.87894669 87.50649811 -35.51692657 86.61846497 -35.14393616 85.70352173 C-34.74967941 84.74948456 -34.35542267 83.79544739 -33.94921875 82.8125 C-33.53888901 81.80972015 -33.12855927 80.80694031 -32.70579529 79.77377319 C-31.37065541 76.51406987 -30.02916057 73.25702422 -28.6875 70 C-27.76966325 67.76267868 -26.85218375 65.52521077 -25.93505859 63.28759766 C-20.55140358 50.16184668 -15.14028696 37.04734649 -9.70092773 23.94458008 C-6.39978893 15.9893371 -3.15580569 8.0140855 0 0 Z " fill="#0E0F1C" transform="translate(237,173)"/>
<path d="M0 0 C2.76352943 3.22411767 4.52069807 6.03520428 6 10 C-18.08069818 21.8528752 -42.59252036 32.51876968 -67.5 42.5 C-68.22644714 42.79154968 -68.95289429 43.08309937 -69.70135498 43.38348389 C-96.20987591 54 -96.20987591 54 -100 54 C-98.68 47.73 -97.36 41.46 -96 35 C-95.67 35.99 -95.34 36.98 -95 38 C-94.46632813 37.81824219 -93.93265625 37.63648438 -93.3828125 37.44921875 C-89.3381398 36.08466654 -85.29437327 34.78983439 -81.1875 33.625 C-77.5598506 32.5467779 -74.11588123 31.26069903 -70.63671875 29.7734375 C-66.00468742 27.82180452 -61.35017556 25.94229851 -56.6640625 24.125 C-55.3528464 23.6156067 -54.04164888 23.10616556 -52.73046875 22.59667969 C-52.06063965 22.33640991 -51.39081055 22.07614014 -50.70068359 21.8079834 C-38.37000668 17.00812745 -26.13718411 12.02074266 -14 6.75 C-13.01619354 6.32388428 -13.01619354 6.32388428 -12.01251221 5.88916016 C-5.58683125 3.60124338 -5.58683125 3.60124338 0 0 Z " fill="#9F4724" transform="translate(433,114)"/>
<path d="M0 0 C0.70382812 -0.02900391 1.40765625 -0.05800781 2.1328125 -0.08789062 C7.29736711 -0.15028766 10.2141533 0.83590634 14.25 4.3125 C18.03084951 8.79910809 18.79732045 11.99208409 18.75 17.8125 C18.7603125 19.0809375 18.770625 20.349375 18.78125 21.65625 C17.97458198 27.20802402 15.71255999 30.06600001 11.5 33.65625 C7.6536786 35.61639456 4.47029839 35.9076947 0.25 35.8125 C-0.43578125 35.82796875 -1.1215625 35.8434375 -1.828125 35.859375 C-6.92510466 35.82046676 -9.83330205 34.49737846 -13.75 31.3125 C-18.22091946 25.14571454 -18.34138295 18.72091547 -17.75 11.3125 C-14.68255431 2.43305195 -8.70196853 0.11696194 0 0 Z " fill="#13141C" transform="translate(310.75,344.6875)"/>
<path d="M0 0 C0.89912109 -0.02900391 1.79824219 -0.05800781 2.72460938 -0.08789062 C8.43251528 -0.1423314 11.90346741 0.32652301 16.3125 4.3125 C20.09334951 8.79910809 20.85982045 11.99208409 20.8125 17.8125 C20.8228125 19.0809375 20.833125 20.349375 20.84375 21.65625 C20.04433384 27.15811414 17.76902227 29.99573399 13.70703125 33.66796875 C9.04222484 35.92790373 5.10713536 35.7897463 0 35.625 C-0.91845703 35.61533203 -1.83691406 35.60566406 -2.78320312 35.59570312 C-9.51879699 35.48120301 -9.51879699 35.48120301 -10.6875 34.3125 C-10.78832764 31.87589554 -10.82722603 29.46825299 -10.8203125 27.03125 C-10.82126923 26.30256714 -10.82222595 25.57388428 -10.82321167 24.82312012 C-10.82389335 23.2797029 -10.82203988 21.73628283 -10.81787109 20.19287109 C-10.81252262 17.822526 -10.81781642 15.45237041 -10.82421875 13.08203125 C-10.82355797 11.58593708 -10.8222768 10.08984303 -10.8203125 8.59375 C-10.82233673 7.88021362 -10.82436096 7.16667725 -10.82644653 6.43151855 C-10.78788626 -1.61020801 -7.00997699 0.07378923 0 0 Z " fill="#10121B" transform="translate(120.6875,388.6875)"/>
<path d="M0 0 C3.86408979 1.71737324 5.4225595 3.14331894 7 7 C7.55499293 9.38369465 8.04881475 11.78199605 8.5 14.1875 C9.57529056 19.81551472 10.72587707 25.41346102 12 31 C12.99 30.67 13.98 30.34 15 30 C15.90319156 27.46706908 15.90319156 27.46706908 16.4296875 24.35546875 C16.66816406 23.20369141 16.90664063 22.05191406 17.15234375 20.86523438 C17.63160821 18.42616684 18.10562459 15.98606185 18.57421875 13.54492188 C18.93580078 11.81145508 18.93580078 11.81145508 19.3046875 10.04296875 C19.51077637 8.98102295 19.71686523 7.91907715 19.92919922 6.82495117 C21.25936115 3.31576199 22.89628409 2.03483492 26 0 C28.98711377 -0.75651298 30.83326231 -0.40212542 34 0 C36.22167969 1.56933594 36.22167969 1.56933594 38 4 C38.45410156 7.39160156 38.45410156 7.39160156 38.390625 11.390625 C38.38496521 12.09523865 38.37930542 12.79985229 38.37347412 13.52581787 C38.35115078 15.76791428 38.30096754 18.00838988 38.25 20.25 C38.22992952 21.77341435 38.2116797 23.29685386 38.1953125 24.8203125 C38.15130118 28.5473983 38.08230372 32.27354087 38 36 C36.02 36 34.04 36 32 36 C31.67 26.43 31.34 16.86 31 7 C30.01 7 29.02 7 28 7 C27.61908203 8.68416016 27.61908203 8.68416016 27.23046875 10.40234375 C21.85873553 33.89580786 21.85873553 33.89580786 17 37 C13.47348714 37.44081411 11.04296284 37.43456785 7.75 36.0625 C1.68119434 28.90997904 0.91022766 15.98873625 -1 7 C-1.99 7 -2.98 7 -4 7 C-4.33 16.57 -4.66 26.14 -5 36 C-6.98 36 -8.96 36 -11 36 C-11.09903473 31.51601216 -11.17154483 27.03260708 -11.21972656 22.54785156 C-11.23981599 21.02299915 -11.26709316 19.49822352 -11.30175781 17.97363281 C-11.35039796 15.77910402 -11.37299396 13.58559531 -11.390625 11.390625 C-11.41157227 10.07094727 -11.43251953 8.75126953 -11.45410156 7.39160156 C-11 4 -11 4 -9.19042969 1.56542969 C-6.00074776 -0.71413345 -3.83215012 -0.47061493 0 0 Z " fill="#14141C" transform="translate(263,388)"/>
<path d="M0 0 C0.33 0 0.66 0 1 0 C1 20.13 1 40.26 1 61 C-0.32 61 -1.64 61 -3 61 C-3 61.99 -3 62.98 -3 64 C-3.99 64 -4.98 64 -6 64 C-6 63.01 -6 62.02 -6 61 C-10.95 60.01 -15.9 59.02 -21 58 C-22.01979164 53.92083344 -22.11017882 53.46887227 -20.5859375 49.921875 C-20.24296631 49.10541504 -19.89999512 48.28895508 -19.54663086 47.44775391 C-18.96667358 46.11236572 -18.96667358 46.11236572 -18.375 44.75 C-17.54969293 42.79472985 -16.72555005 40.83896804 -15.90234375 38.8828125 C-15.21567627 37.26294434 -15.21567627 37.26294434 -14.51513672 35.61035156 C-11.89583885 29.36894375 -9.36472126 23.09172286 -6.82525635 16.81750488 C-5.39536306 13.28607645 -3.96107299 9.75643483 -2.52734375 6.2265625 C-1.68485742 4.15105726 -0.84239393 2.07554275 0 0 Z " fill="#EE6922" transform="translate(237,173)"/>
<path d="M0 0 C2.373093 3.164124 3.68615822 5.26308363 5.12890625 8.796875 C5.51965332 9.74473877 5.91040039 10.69260254 6.31298828 11.66918945 C6.72532715 12.68585693 7.13766602 13.70252441 7.5625 14.75 C8.4462447 16.90509963 9.33037107 19.06004278 10.21484375 21.21484375 C10.66972168 22.32714355 11.12459961 23.43944336 11.59326172 24.58544922 C13.00185834 28.00451072 14.43575996 31.41179711 15.87890625 34.81640625 C16.339021 35.9053418 16.79913574 36.99427734 17.27319336 38.11621094 C18.16237081 40.21863304 19.05501666 42.31959221 19.95141602 44.41894531 C20.55167603 45.8454541 20.55167603 45.8454541 21.1640625 47.30078125 C21.51936035 48.13778564 21.8746582 48.97479004 22.24072266 49.8371582 C23 52 23 52 23 55 C14.82496376 57.66939959 9.43577249 57 0 57 C0 38.19 0 19.38 0 0 Z " fill="#ED6922" transform="translate(243,176)"/>
<path d="M0 0 C2.72768563 0.69283215 4.20444454 2.18883566 5.80078125 4.45703125 C8.17599703 8.65995544 10.08617351 13.04911902 11.953125 17.49609375 C13.82887358 21.90075337 15.7691401 26.23212324 17.953125 30.49609375 C18.613125 30.49609375 19.273125 30.49609375 19.953125 30.49609375 C20.283125 20.92609375 20.613125 11.35609375 20.953125 1.49609375 C22.933125 1.49609375 24.913125 1.49609375 26.953125 1.49609375 C27.05215973 5.98008159 27.12466983 10.46348667 27.17285156 14.94824219 C27.19294099 16.4730946 27.22021816 17.99787023 27.25488281 19.52246094 C27.30352296 21.71698973 27.32611896 23.91049844 27.34375 26.10546875 C27.36469727 27.42514648 27.38564453 28.74482422 27.40722656 30.10449219 C26.953125 33.49609375 26.953125 33.49609375 25.05371094 35.92260742 C22.79112676 37.61744181 21.74559747 38.0640478 18.953125 38.05859375 C17.963125 38.09146484 17.963125 38.09146484 16.953125 38.125 C13.87497957 37.15706755 12.81862 35.0743696 10.953125 32.49609375 C9.95434706 30.54301314 9.02410864 28.55373434 8.15625 26.5390625 C7.67285156 25.42724609 7.18945312 24.31542969 6.69140625 23.16992188 C6.20027344 22.01943359 5.70914063 20.86894531 5.203125 19.68359375 C4.69652344 18.51376953 4.18992188 17.34394531 3.66796875 16.13867188 C2.42280438 13.26069762 1.18480277 10.37985942 -0.046875 7.49609375 C-1.036875 7.49609375 -2.026875 7.49609375 -3.046875 7.49609375 C-3.376875 17.06609375 -3.706875 26.63609375 -4.046875 36.49609375 C-6.026875 36.49609375 -8.006875 36.49609375 -10.046875 36.49609375 C-10.14590973 32.01210591 -10.21841983 27.52870083 -10.26660156 23.04394531 C-10.28669099 21.5190929 -10.31396816 19.99431727 -10.34863281 18.46972656 C-10.39727296 16.27519777 -10.41986896 14.08168906 -10.4375 11.88671875 C-10.45844727 10.56704102 -10.47939453 9.24736328 -10.50097656 7.88769531 C-10.046875 4.49609375 -10.046875 4.49609375 -8.26855469 2.07324219 C-5.55323578 0.14566415 -3.3148393 -0.20257351 0 0 Z " fill="#11131C" transform="translate(183.046875,387.50390625)"/>
<path d="M0 0 C0.66 0.99 1.32 1.98 2 3 C-0.63203148 15.55276554 -10.87660763 28.55824279 -21.42578125 35.625 C-28.11511646 39.47875776 -28.11511646 39.47875776 -32 40 C-34 38 -34 38 -34.5 35.0625 C-34.11205867 24.06322215 -23.96302488 14.74827862 -16.5625 7.66796875 C-7.29376531 -0.79280058 -7.29376531 -0.79280058 0 0 Z " fill="#BDBBBC" transform="translate(203,74)"/>
<path d="M0 0 C1.53333984 0.03383789 1.53333984 0.03383789 3.09765625 0.06835938 C5.60829581 0.12701918 8.11587379 0.20904072 10.625 0.3125 C10.625 2.2925 10.625 4.2725 10.625 6.3125 C4.025 6.6425 -2.575 6.9725 -9.375 7.3125 C-9.705 8.9625 -10.035 10.6125 -10.375 12.3125 C-8.19184264 14.49565736 -2.54323205 13.66437905 0.546875 13.7421875 C5.04996292 13.94085314 8.04937657 14.5182165 11.625 17.3125 C14.3040573 21.33108595 14.32110694 24.58891721 13.625 29.3125 C11.83106332 32.18279869 10.64236724 33.80381638 7.625 35.3125 C5.81158158 35.39721364 3.99505839 35.41971083 2.1796875 35.41015625 C0.56513672 35.40532227 0.56513672 35.40532227 -1.08203125 35.40039062 C-2.20996094 35.39201172 -3.33789062 35.38363281 -4.5 35.375 C-5.63566406 35.37048828 -6.77132813 35.36597656 -7.94140625 35.36132812 C-10.75265638 35.34951615 -13.5638023 35.33304507 -16.375 35.3125 C-16.375 33.3325 -16.375 31.3525 -16.375 29.3125 C-15.7137915 29.28744385 -15.05258301 29.2623877 -14.37133789 29.23657227 C-11.39317695 29.12096898 -8.4153608 28.99808246 -5.4375 28.875 C-4.39658203 28.83568359 -3.35566406 28.79636719 -2.28320312 28.75585938 C-1.29384766 28.71396484 -0.30449219 28.67207031 0.71484375 28.62890625 C2.08950806 28.57391968 2.08950806 28.57391968 3.49194336 28.51782227 C5.6070728 28.54246136 5.6070728 28.54246136 6.625 27.3125 C6.79166667 24.8125 6.79166667 24.8125 6.625 22.3125 C4.41638204 20.10388204 -1.70342125 21.06396475 -4.85351562 21.05859375 C-8.85421514 20.92674069 -11.63963385 20.54155263 -14.87890625 18.078125 C-17.50648294 15.16681938 -18.19701093 14.15308316 -18.125 10.3125 C-18.14046875 9.4875 -18.1559375 8.6625 -18.171875 7.8125 C-17.23030075 4.85854158 -15.86717822 3.14924425 -13.3984375 1.27197266 C-9.18118588 -0.72776176 -4.56233178 -0.19132359 0 0 Z " fill="#12131C" transform="translate(367.375,388.6875)"/>
<path d="M0 0 C1.53333984 0.03383789 1.53333984 0.03383789 3.09765625 0.06835938 C5.60829581 0.12701918 8.11587379 0.20904072 10.625 0.3125 C10.625 2.2925 10.625 4.2725 10.625 6.3125 C4.025 6.6425 -2.575 6.9725 -9.375 7.3125 C-9.705 8.9625 -10.035 10.6125 -10.375 12.3125 C-8.19184264 14.49565736 -2.54323205 13.66437905 0.546875 13.7421875 C5.04996292 13.94085314 8.04937657 14.5182165 11.625 17.3125 C14.3040573 21.33108595 14.32110694 24.58891721 13.625 29.3125 C11.83106332 32.18279869 10.64236724 33.80381638 7.625 35.3125 C5.81158158 35.39721364 3.99505839 35.41971083 2.1796875 35.41015625 C0.56513672 35.40532227 0.56513672 35.40532227 -1.08203125 35.40039062 C-2.20996094 35.39201172 -3.33789062 35.38363281 -4.5 35.375 C-5.63566406 35.37048828 -6.77132812 35.36597656 -7.94140625 35.36132812 C-10.75265638 35.34951615 -13.5638023 35.33304507 -16.375 35.3125 C-16.375 33.3325 -16.375 31.3525 -16.375 29.3125 C-15.7137915 29.28744385 -15.05258301 29.2623877 -14.37133789 29.23657227 C-11.39317695 29.12096898 -8.4153608 28.99808246 -5.4375 28.875 C-4.39658203 28.83568359 -3.35566406 28.79636719 -2.28320312 28.75585938 C-1.29384766 28.71396484 -0.30449219 28.67207031 0.71484375 28.62890625 C2.08950806 28.57391968 2.08950806 28.57391968 3.49194336 28.51782227 C5.6070728 28.54246136 5.6070728 28.54246136 6.625 27.3125 C6.79166667 24.8125 6.79166667 24.8125 6.625 22.3125 C4.41638204 20.10388204 -1.70342125 21.06396475 -4.85351562 21.05859375 C-8.85421514 20.92674069 -11.63963385 20.54155263 -14.87890625 18.078125 C-17.50648294 15.16681938 -18.19701093 14.15308316 -18.125 10.3125 C-18.14046875 9.4875 -18.1559375 8.6625 -18.171875 7.8125 C-17.23030075 4.85854158 -15.86717822 3.14924425 -13.3984375 1.27197266 C-9.18118588 -0.72776176 -4.56233178 -0.19132359 0 0 Z " fill="#12131C" transform="translate(216.375,344.6875)"/>
<path d="M0 0 C3.89558088 -0.11643304 7.79071258 -0.18732909 11.6875 -0.25 C12.79029297 -0.28351563 13.89308594 -0.31703125 15.02929688 -0.3515625 C23.23543471 -0.45073033 23.23543471 -0.45073033 27.20703125 1.890625 C30.2478917 5.46810789 30.38890724 8.1568778 30.359375 12.734375 C29.787702 16.33840042 27.84375706 17.90103646 25 20 C24.34 20 23.68 20 23 20 C23.5775 20.99902344 24.155 21.99804688 24.75 23.02734375 C25.50011259 24.33066437 26.25010648 25.63405332 27 26.9375 C27.3815625 27.59685547 27.763125 28.25621094 28.15625 28.93554688 C31 33.88671875 31 33.88671875 31 35 C26.70026064 36.05299739 26.70026064 36.05299739 24 35 C21.04065512 31.19512802 17 25.98196766 17 21 C13.37 21 9.74 21 6 21 C6 25.62 6 30.24 6 35 C4.02 35 2.04 35 0 35 C-0.05379226 32.04142591 -0.09357093 29.08382279 -0.125 26.125 C-0.14175781 25.28324219 -0.15851563 24.44148438 -0.17578125 23.57421875 C-0.18222656 22.76855469 -0.18867188 21.96289062 -0.1953125 21.1328125 C-0.20578613 20.38918457 -0.21625977 19.64555664 -0.22705078 18.87939453 C0 17 0 17 2 15 C4.04711914 14.69702148 4.04711914 14.69702148 6.53515625 14.62109375 C7.87223633 14.56985352 7.87223633 14.56985352 9.23632812 14.51757812 C10.16896484 14.49115234 11.10160156 14.46472656 12.0625 14.4375 C13.90768982 14.37781389 15.75275897 14.31422537 17.59765625 14.24609375 C18.41758057 14.22216553 19.23750488 14.1982373 20.08227539 14.17358398 C22.00781262 14.2056821 22.00781262 14.2056821 23 13 C23.16666667 10.5 23.16666667 10.5 23 8 C21.34920558 6.34920558 19.36263821 6.77450553 17.08984375 6.68359375 C16.10048828 6.64169922 15.11113281 6.59980469 14.09179688 6.55664062 C13.05087891 6.51732422 12.00996094 6.47800781 10.9375 6.4375 C9.89271484 6.39431641 8.84792969 6.35113281 7.77148438 6.30664062 C5.18113116 6.20018775 2.59067814 6.0981724 0 6 C0 4.02 0 2.04 0 0 Z " fill="#11121C" transform="translate(260,345)"/>
<path d="M0 0 C0.66 -0.02191406 1.32 -0.04382813 2 -0.06640625 C5.17110504 0.93075764 6.20699641 2.82329123 8 5.5625 C9.30859375 8.91015625 9.30859375 8.91015625 10.4375 12.625 C12.30665928 18.5982149 14.4750187 24.33287506 16.984375 30.07421875 C17.86775035 32.23848835 18.50875224 34.28246965 19 36.5625 C16.69 36.5625 14.38 36.5625 12 36.5625 C9.93172705 31.99052821 8.18128245 27.35392436 6.5 22.625 C6.06945312 21.41585938 5.63890625 20.20671875 5.1953125 18.9609375 C4.48813767 16.95034238 3.79117481 14.93602444 3.1171875 12.9140625 C2.49484209 11.09943429 1.75985404 9.32397983 1 7.5625 C0.01 7.2325 -0.98 6.9025 -2 6.5625 C-2.23783203 7.56216797 -2.23783203 7.56216797 -2.48046875 8.58203125 C-4.0333927 14.71650985 -6.07702208 20.25787725 -8.79296875 25.96875 C-10.4062085 29.43538816 -11.71019237 32.96461556 -13 36.5625 C-15.31 36.5625 -17.62 36.5625 -20 36.5625 C-18.29866176 30.18593961 -16.08539293 24.33493 -13.2578125 18.375 C-11.59609951 14.65936847 -10.32813577 10.84731193 -9.08984375 6.97265625 C-7.19061589 2.7725717 -4.78640497 -0.00934845 0 0 Z " fill="#17151D" transform="translate(231,387.4375)"/>
<path d="M0 0 C0.66 -0.02191406 1.32 -0.04382813 2 -0.06640625 C5.17110504 0.93075764 6.20699641 2.82329123 8 5.5625 C9.30859375 8.91015625 9.30859375 8.91015625 10.4375 12.625 C12.30665928 18.5982149 14.4750187 24.33287506 16.984375 30.07421875 C17.86775035 32.23848835 18.50875224 34.28246965 19 36.5625 C16.69 36.5625 14.38 36.5625 12 36.5625 C9.93172705 31.99052821 8.18128245 27.35392436 6.5 22.625 C6.06945312 21.41585938 5.63890625 20.20671875 5.1953125 18.9609375 C4.48813767 16.95034238 3.79117481 14.93602444 3.1171875 12.9140625 C2.49484209 11.09943429 1.75985404 9.32397983 1 7.5625 C0.01 7.2325 -0.98 6.9025 -2 6.5625 C-2.23783203 7.56216797 -2.23783203 7.56216797 -2.48046875 8.58203125 C-4.0333927 14.71650985 -6.07702208 20.25787725 -8.79296875 25.96875 C-10.4062085 29.43538816 -11.71019237 32.96461556 -13 36.5625 C-15.31 36.5625 -17.62 36.5625 -20 36.5625 C-18.29866176 30.18593961 -16.08539293 24.33493 -13.2578125 18.375 C-11.59609951 14.65936847 -10.32813577 10.84731193 -9.08984375 6.97265625 C-7.19061589 2.7725717 -4.78640497 -0.00934845 0 0 Z " fill="#17151D" transform="translate(179,343.4375)"/>
<path d="M0 0 C2.20832212 1.06910833 3.04776572 1.88217903 4.32421875 3.95703125 C5.98520089 8.97838188 5.98520089 14.02161812 4.32421875 19.04296875 C3.05355031 21.10841823 2.18852217 21.92102799 0 23 C-5.6890591 23.92510948 -10.89268943 24.3720676 -15.84375 21.1484375 C-18.95509117 18.04836931 -19.19045404 15.35164426 -19.3125 11.125 C-19.28552211 7.42902915 -19.11441406 6.1868763 -17.125 2.9375 C-12.32548393 -1.43852936 -6.16997183 -0.76361037 0 0 Z " fill="#E76A27" transform="translate(318,351)"/>
<path d="M0 0 C0.85078125 0.00322266 1.7015625 0.00644531 2.578125 0.00976562 C3.46757812 0.01814453 4.35703125 0.02652344 5.2734375 0.03515625 C6.170625 0.03966797 7.0678125 0.04417969 7.9921875 0.04882812 C10.21100398 0.06063034 12.42968768 0.0770947 14.6484375 0.09765625 C14.6484375 2.07765625 14.6484375 4.05765625 14.6484375 6.09765625 C13.47925781 6.11183594 12.31007813 6.12601562 11.10546875 6.140625 C9.55725293 6.18754063 8.00907706 6.23578794 6.4609375 6.28515625 C5.69201172 6.29095703 4.92308594 6.29675781 4.13085938 6.30273438 C-0.0446989 6.46402203 -1.91848281 6.77662823 -5.37109375 9.3359375 C-8.41161459 13.57587485 -8.12667908 17.07589033 -7.3515625 22.09765625 C-5.65753161 25.88131157 -5.65753161 25.88131157 -2.3515625 28.09765625 C0.52754338 28.33039834 3.38990245 28.51738382 6.2734375 28.66015625 C7.07523437 28.70333984 7.87703125 28.74652344 8.703125 28.79101562 C10.6846886 28.89717082 12.66654021 28.9979248 14.6484375 29.09765625 C14.6484375 31.07765625 14.6484375 33.05765625 14.6484375 35.09765625 C11.60580483 35.20610652 8.56707546 35.28517688 5.5234375 35.34765625 C4.6675 35.38117188 3.8115625 35.4146875 2.9296875 35.44921875 C-2.69547956 35.53575978 -5.91277808 34.90431331 -10.3515625 31.09765625 C-14.82248196 24.93087079 -14.94294545 18.50607172 -14.3515625 11.09765625 C-12.00146543 4.29474369 -7.25851113 -0.04839007 0 0 Z " fill="#12131C" transform="translate(332.3515625,388.90234375)"/>
<path d="M0 0 C0.88365234 0.01804687 1.76730469 0.03609375 2.67773438 0.0546875 C4.84812543 0.10161487 7.01795519 0.17335269 9.1875 0.25 C9.1875 1.9 9.1875 3.55 9.1875 5.25 C0.7725 5.745 0.7725 5.745 -7.8125 6.25 C-8.1425 7.9 -8.4725 9.55 -8.8125 11.25 C-2.8725 11.58 3.0675 11.91 9.1875 12.25 C9.1875 13.9 9.1875 15.55 9.1875 17.25 C3.2475 17.58 -2.6925 17.91 -8.8125 18.25 C-8.8125 20.23 -8.8125 22.21 -8.8125 24.25 C-2.8725 24.25 3.0675 24.25 9.1875 24.25 C9.1875 25.9 9.1875 27.55 9.1875 29.25 C6.12404856 29.35822792 3.0644399 29.43741479 0 29.5 C-0.86431641 29.53351563 -1.72863281 29.56703125 -2.61914062 29.6015625 C-6.79900165 29.66562167 -9.20247801 29.59825306 -12.8984375 27.48828125 C-14.94605375 25.09382388 -15.43418895 24.27117956 -15.25 21.1875 C-14.8125 17.25 -14.8125 17.25 -12.8125 14.25 C-13.4725 13.59 -14.1325 12.93 -14.8125 12.25 C-15.44926845 6.61005089 -15.44926845 6.61005089 -14.8125 4.25 C-10.5655715 -0.72497339 -6.04761393 -0.23450852 0 0 Z " fill="#19161D" transform="translate(255.8125,304.75)"/>
<path d="M0 0 C12.49232987 -0.70050448 12.49232987 -0.70050448 16.04296875 0.94921875 C19.01927443 3.99534978 19.37624446 7.35595878 19.625 11.5 C19.37624446 15.64404122 19.01927443 19.00465022 16.04296875 22.05078125 C11.15145883 24.32350957 5.20386537 23.29180553 0 23 C0 15.41 0 7.82 0 0 Z " fill="#E46927" transform="translate(116,395)"/>
<path d="M0 0 C0.88816406 0.01804687 1.77632812 0.03609375 2.69140625 0.0546875 C4.87870848 0.10172626 7.06379816 0.16742991 9.25 0.25 C9.25 1.9 9.25 3.55 9.25 5.25 C0.835 5.745 0.835 5.745 -7.75 6.25 C-7.75 7.9 -7.75 9.55 -7.75 11.25 C-6.86957031 11.28738281 -5.98914063 11.32476562 -5.08203125 11.36328125 C-3.92058594 11.42902344 -2.75914062 11.49476563 -1.5625 11.5625 C-0.41394531 11.62050781 0.73460937 11.67851562 1.91796875 11.73828125 C5.42999272 12.27764249 7.41299098 13.1494723 10.25 15.25 C11.81935594 18.38871188 11.60201103 20.78855822 11.25 24.25 C9.37109375 26.9609375 9.37109375 26.9609375 6.25 29.25 C2.78941489 29.85275676 -0.56340324 29.72323589 -4.0625 29.5625 C-4.99384766 29.53994141 -5.92519531 29.51738281 -6.88476562 29.49414062 C-9.1748396 29.43542078 -11.46157875 29.35336858 -13.75 29.25 C-13.75 27.6 -13.75 25.95 -13.75 24.25 C-7.81 23.92 -1.87 23.59 4.25 23.25 C4.91 21.6 5.57 19.95 6.25 18.25 C4.71279297 18.22873047 4.71279297 18.22873047 3.14453125 18.20703125 C1.78381029 18.16010984 0.42313459 18.11186256 -0.9375 18.0625 C-1.61103516 18.05669922 -2.28457031 18.05089844 -2.97851562 18.04492188 C-6.81877164 17.87632527 -8.64340393 17.33290806 -11.703125 14.953125 C-14.4199015 11.36532092 -14.4199015 11.36532092 -14.3125 8.1875 C-13.75 4.25 -13.75 4.25 -12.32421875 2.01953125 C-8.38051958 -0.6913879 -4.66199838 -0.17904277 0 0 Z " fill="#16151D" transform="translate(201.75,304.75)"/>
<path d="M0 0 C4.93046523 -1.14457229 4.93046523 -1.14457229 8 0 C10.5092781 3.19998531 12.41749669 6.4871227 14.3359375 10.05859375 C15.67972154 13.07247483 15.67972154 13.07247483 18 14 C18.27585938 13.27425781 18.55171875 12.54851562 18.8359375 11.80078125 C20.64853926 7.43958843 22.66425258 3.39376042 26 0 C29.01400792 -0.80228988 30.84929674 -0.48890223 34 0 C32.96275052 1.66941928 31.9199175 3.33536952 30.875 5 C30.24078125 6.01707031 29.6065625 7.03414063 28.953125 8.08203125 C27.30740288 10.54074009 25.6225786 12.52992117 23.625 14.6875 C19.18500825 20.29653213 20.01655488 28.17938858 20 35 C18.02 35 16.04 35 14 35 C14.04382813 33.99582031 14.08765625 32.99164063 14.1328125 31.95703125 C14.23428825 21.88618191 12.1675234 16.33644838 5.4453125 8.8671875 C3.03144136 6.03686575 1.51488721 3.38090721 0 0 Z " fill="#14141D" transform="translate(139,389)"/>
<path d="M0 0 C2.734375 -0.28125 2.734375 -0.28125 6 0 C8.265625 1.96875 8.265625 1.96875 10.25 4.5 C11.46630342 6.02745081 12.7092966 7.53487723 14 9 C14.66 9 15.32 9 16 9 C17.10477278 7.53085625 18.15973448 6.02400928 19.1875 4.5 C21.046875 2.00390625 21.046875 2.00390625 23 0 C26.9375 -0.5625 26.9375 -0.5625 30 0 C26.61227103 4.69159716 23.21814817 9.0299782 19 13 C20.62135878 16.75050576 23.00586728 19.57364221 25.625 22.6875 C30 27.89747634 30 27.89747634 30 29 C27.3046875 29.3125 27.3046875 29.3125 24 29 C21.4453125 26.8125 21.4453125 26.8125 19.125 24 C18.34382813 23.071875 17.56265625 22.14375 16.7578125 21.1875 C16.17773438 20.465625 15.59765625 19.74375 15 19 C13.9171875 20.0828125 13.9171875 20.0828125 12.8125 21.1875 C11.884375 22.115625 10.95625 23.04375 10 24 C9.195625 24.928125 8.39125 25.85625 7.5625 26.8125 C5 29 5 29 1.6875 29.3125 C0.800625 29.209375 -0.08625 29.10625 -1 29 C2.53613714 24.21224044 6.14483704 19.53548584 10 15 C8.6313795 10.93735809 6.79452351 8.36834411 3.875 5.25 C0 1.08540925 0 1.08540925 0 0 Z " fill="#17151D" transform="translate(268,305)"/>
<path d="M0 0 C8.58 0 17.16 0 26 0 C26 1.98 26 3.96 26 6 C22.7 6 19.4 6 16 6 C16 15.57 16 25.14 16 35 C14.02 35 12.04 35 10 35 C10 25.43 10 15.86 10 6 C6.7 6 3.4 6 0 6 C0 4.02 0 2.04 0 0 Z " fill="#0D111B" transform="translate(231,345)"/>
<path d="M0 0 C-1.22408476 10.32821513 -11.48961788 20.44959153 -19 27 C-24.08695652 31 -24.08695652 31 -27 31 C-27.72901483 24.29306356 -25.70169754 19.57324932 -22 14 C-16.14617756 7.00151932 -9.65254978 0 0 0 Z " fill="#171924" transform="translate(203,81)"/>
<path d="M0 0 C3.06398451 -0.13530844 6.12197126 -0.2342407 9.1875 -0.3125 C10.05181641 -0.35439453 10.91613281 -0.39628906 11.80664062 -0.43945312 C16.31196425 -0.52576201 18.34841408 -0.48103103 22.07421875 2.26953125 C24.41558251 5.58923362 24.78037041 7.13555512 24.453125 11.0625 C24 13 24 13 22.375 16 C16.92580588 19.22915207 11.18104896 18.37638322 5 18 C5 21.63 5 25.26 5 29 C3.35 29 1.7 29 0 29 C-0.05384521 26.70858714 -0.09272087 24.41681812 -0.125 22.125 C-0.14820313 20.84882813 -0.17140625 19.57265625 -0.1953125 18.2578125 C0 15 0 15 2 13 C4.56916657 12.69400937 7.04758384 12.48912913 9.625 12.375 C10.33140625 12.33632813 11.0378125 12.29765625 11.765625 12.2578125 C13.50998524 12.16352276 15.25495691 12.08067109 17 12 C17.38218767 10.34385343 17.71395102 8.67542976 18 7 C15.88074396 4.88074396 11.3803907 5.58168983 8.4375 5.4375 C7.63119141 5.39431641 6.82488281 5.35113281 5.99414062 5.30664062 C3.99631195 5.20024738 1.9981793 5.09959112 0 5 C0 3.35 0 1.7 0 0 Z " fill="#14141C" transform="translate(216,305)"/>
<path d="M0 0 C1.98 0 3.96 0 6 0 C6 11.55 6 23.1 6 35 C4.02 35 2.04 35 0 35 C0 23.45 0 11.9 0 0 Z " fill="#0D111B" transform="translate(307,389)"/>
<path d="M0 0 C2.40585935 0.32078125 3.83996928 0.88411569 5.8125 2.3125 C7 4 7 4 6.78515625 5.87109375 C5.83093889 8.45839953 4.58184337 9.8179268 2.625 11.75 C2.01914062 12.36359375 1.41328125 12.9771875 0.7890625 13.609375 C-1 15 -1 15 -4 15 C-6.1875 12 -6.1875 12 -8 9 C-6.85459775 7.68712379 -5.70866567 6.37470979 -4.5625 5.0625 C-3.92441406 4.33160156 -3.28632813 3.60070312 -2.62890625 2.84765625 C-1.77458541 1.87860647 -0.91348825 0.91348825 0 0 Z " fill="#120F0D" transform="translate(298,168)"/>
<path d="M0 0 C0.33 0 0.66 0 1 0 C1 20.13 1 40.26 1 61 C-0.32 61 -1.64 61 -3 61 C-3 61.99 -3 62.98 -3 64 C-3.99 64 -4.98 64 -6 64 C-6 63.01 -6 62.02 -6 61 C-6.66 60.67 -7.32 60.34 -8 60 C-5.36 60 -2.72 60 0 60 C-0.33 42.84 -0.66 25.68 -1 8 C-1.99 8.495 -1.99 8.495 -3 9 C-2.01 6.03 -1.02 3.06 0 0 Z " fill="#98502C" transform="translate(237,173)"/>
<path d="M0 0 C-0.75 4.75 -0.75 4.75 -3 7 C-3 6.34 -3 5.68 -3 5 C-3.598125 5.495 -4.19625 5.99 -4.8125 6.5 C-7 8 -7 8 -10 8 C-10 6.35 -10 4.7 -10 3 C-6.27034861 0.96564469 -4.33094958 0 0 0 Z " fill="#696970" transform="translate(203,81)"/>
</svg>
